<?xml version="1.0" standalone="no"?><!DOCTYPE svg PUBLIC "-//W3C//DTD SVG 1.1//EN" "http://www.w3.org/Graphics/SVG/1.1/DTD/svg11.dtd"><svg width="100%" height="100%" viewBox="0 0 242 242" version="1.1" xmlns="http://www.w3.org/2000/svg" xmlns:xlink="http://www.w3.org/1999/xlink" xml:space="preserve" style="fill-rule:evenodd;clip-rule:evenodd;stroke-linejoin:round;stroke-miterlimit:1.41421;"><g><path id="Close" d="M138.138,120.754l99.118,-98.576c4.752,-4.704 4.752,-12.319 0,-17.011c-4.74,-4.704 -12.439,-4.704 -17.179,0l-99.033,98.492l-99.949,-99.96c-4.74,-4.752 -12.439,-4.752 -17.179,0c-4.74,4.764 -4.74,12.475 0,17.227l99.876,99.888l-100.237,99.683c-4.74,4.704 -4.74,12.319 0,17.011c4.74,4.704 12.439,4.704 17.179,0l100.152,-99.599l99.551,99.563c4.74,4.752 12.439,4.752 17.179,0c4.74,-4.764 4.74,-12.475 0,-17.227l-99.478,-99.491Z" style="fill:#333;fill-rule:nonzero;"/></g></svg>