<?xml version="1.0" encoding="utf-8"?>
<!-- Generator: Adobe Illustrator 19.0.0, SVG Export Plug-In . SVG Version: 6.00 Build 0)  -->
<svg version="1.1" id="Calque_1" xmlns="http://www.w3.org/2000/svg" xmlns:xlink="http://www.w3.org/1999/xlink" x="0px" y="0px"
	 viewBox="0 0 235 94" style="enable-background:new 0 0 235 94;" xml:space="preserve">
<style type="text/css">
	.st0{fill:#BACE1B;}
	.st1{fill:#F1F2F2;}
	.st2{fill:#FFFFFF;}
	.st3{fill:#EAEAD9;}
</style>
<g id="XMLID_394_">
	<g id="XMLID_395_">
		<path id="XMLID_396_" class="st0" d="M164.7,47c-13,0-23.5,10.5-23.5,23.5S151.7,94,164.7,94c13,0,23.5-10.5,23.5-23.5
			C188.2,57.5,177.7,47,164.7,47z M178.6,64.1c-1.6,8.9-10.4,16.4-13,18.1c-2.6,1.7-5.1-0.7-5.9-2.5c-1-2.1-4-13.3-4.8-14.2
			s-3.1,0.9-3.1,0.9l-1.1-1.5c0,0,4.8-5.7,8.4-6.4c3.9-0.8,3.9,5.9,4.8,9.7c0.9,3.6,1.5,5.7,2.3,5.7c0.8,0,2.3-2,3.9-5.1
			c1.7-3.1-0.1-5.8-3.3-3.9C168.1,57.1,180.2,55.2,178.6,64.1z"/>
	</g>
</g>
<g id="XMLID_399_">
	<circle id="XMLID_400_" class="st0" cx="70.6" cy="70.5" r="23.5"/>
	<g id="XMLID_401_">
		<path id="XMLID_402_" class="st1" d="M85,63.9c-1,0.4-2.1,0.7-3.2,0.9c1.2-0.7,2.1-1.8,2.5-3.1c-1.1,0.6-2.3,1.1-3.6,1.4
			c-1-1.1-2.5-1.8-4.1-1.8c-3.1,0-5.6,2.5-5.6,5.6c0,0.4,0,0.9,0.1,1.3c-4.7-0.2-8.8-2.5-11.6-5.9c-0.5,0.8-0.8,1.8-0.8,2.8
			c0,1.9,1,3.7,2.5,4.7c-0.9,0-1.8-0.3-2.5-0.7c0,0,0,0,0,0.1c0,2.7,1.9,5,4.5,5.5c-0.5,0.1-1,0.2-1.5,0.2c-0.4,0-0.7,0-1.1-0.1
			c0.7,2.2,2.8,3.9,5.2,3.9c-1.9,1.5-4.3,2.4-7,2.4c-0.5,0-0.9,0-1.3-0.1c2.5,1.6,5.4,2.5,8.6,2.5c10.3,0,16-8.6,16-16
			c0-0.2,0-0.5,0-0.7C83.3,66,84.2,65,85,63.9L85,63.9z"/>
	</g>
</g>
<g id="XMLID_403_">
	<circle id="XMLID_404_" class="st0" cx="117.7" cy="70.7" r="23.5"/>
	<path id="XMLID_405_" class="st2" d="M127.3,56.6H108c-2.4,0-4.4,2-4.4,4.4v19.3c0,2.4,2,4.4,4.4,4.4h19.3c2.4,0,4.4-2,4.4-4.4
		V61.1C131.8,58.6,129.8,56.6,127.3,56.6z M124.3,59.9l3.5,0h0c0.3,0,0.6,0.3,0.6,0.6V64c0,0.3-0.3,0.6-0.6,0.6l-3.5,0
		c-0.3,0-0.6-0.3-0.6-0.6l0-3.5C123.7,60.2,124,59.9,124.3,59.9z M113.4,68.3c0.1-0.2,0.2-0.3,0.3-0.5c0.9-1.2,2.4-2.1,4-2.1
		c1.7,0,3.1,0.8,4,2.1c0.1,0.2,0.2,0.3,0.3,0.5c0.4,0.7,0.6,1.5,0.6,2.4c0,2.7-2.2,5-5,5s-5-2.2-5-5C112.7,69.8,113,69,113.4,68.3z
		 M129,79.3c0,1.5-1.2,2.7-2.7,2.7h-17.3c-1.5,0-2.7-1.2-2.7-2.7V67.8h4.2c-0.1,0.3-0.2,0.5-0.3,0.8c-0.2,0.7-0.3,1.4-0.3,2.1
		c0,4.2,3.5,7.7,7.7,7.7c4.2,0,7.7-3.5,7.7-7.7c0-0.7-0.1-1.4-0.3-2.1c-0.1-0.3-0.2-0.5-0.3-0.8h4.2V79.3z"/>
</g>
<g id="XMLID_413_">
	<circle id="XMLID_411_" class="st0" cx="23.5" cy="70.5" r="23.5"/>
	<path id="XMLID_410_" class="st2" d="M29.4,71.4h-4.2v15.4h-6.4V71.4h-3V66h3v-3.5c0-2.5,1.2-6.4,6.4-6.4l4.7,0v5.2h-3.4
		c-0.6,0-1.3,0.3-1.3,1.5V66H30L29.4,71.4z"/>
</g>
<g id="XMLID_418_">
	<g id="XMLID_419_">
		<path id="XMLID_420_" class="st0" d="M211.7,47c-13,0-23.5,10.5-23.5,23.5S198.7,94,211.7,94c13,0,23.5-10.5,23.5-23.5
			C235.2,57.5,224.7,47,211.7,47z M200.9,85.1c-2.1,0-3.8-1.7-3.8-3.8c0-2.1,1.7-3.8,3.8-3.8c2.1,0,3.8,1.7,3.8,3.8
			C204.7,83.4,203,85.1,200.9,85.1z M210.5,85.2c0-3.6-1.4-7-3.9-9.5c-2.5-2.5-5.9-3.9-9.5-3.9v-5.5c10.5,0,19,8.5,19,19L210.5,85.2
			L210.5,85.2z M220.3,85.1c0-12.8-10.4-23.2-23.2-23.2v-5.5c15.8,0,28.7,12.9,28.7,28.7H220.3z"/>
	</g>
</g>
<g id="XMLID_459_">
	<g id="XMLID_460_">
		<path id="XMLID_461_" class="st3" d="M164.8,0c-13,0-23.5,10.5-23.5,23.5S151.8,47,164.8,47c13,0,23.5-10.5,23.5-23.5
			C188.3,10.5,177.8,0,164.8,0z M178.7,17.1c-1.6,8.9-10.4,16.4-13,18.1c-2.6,1.7-5.1-0.7-5.9-2.5c-1-2.1-4-13.3-4.8-14.2
			s-3.1,0.9-3.1,0.9l-1.1-1.5c0,0,4.8-5.7,8.4-6.4c3.9-0.8,3.9,5.9,4.8,9.7c0.9,3.6,1.5,5.7,2.3,5.7c0.8,0,2.3-2,3.9-5.1
			c1.7-3.1-0.1-5.8-3.3-3.9C168.1,10.1,180.3,8.2,178.7,17.1z"/>
	</g>
</g>
<g id="XMLID_455_">
	<circle id="XMLID_458_" class="st3" cx="70.7" cy="23.5" r="23.5"/>
	<g id="XMLID_456_">
		<path id="XMLID_457_" class="st2" d="M85.1,16.9c-1,0.4-2.1,0.7-3.2,0.9c1.2-0.7,2.1-1.8,2.5-3.1c-1.1,0.6-2.3,1.1-3.6,1.4
			c-1-1.1-2.5-1.8-4.1-1.8c-3.1,0-5.6,2.5-5.6,5.6c0,0.4,0,0.9,0.1,1.3c-4.7-0.2-8.8-2.5-11.6-5.9c-0.5,0.8-0.8,1.8-0.8,2.8
			c0,1.9,1,3.7,2.5,4.7c-0.9,0-1.8-0.3-2.5-0.7c0,0,0,0,0,0.1c0,2.7,1.9,5,4.5,5.5c-0.5,0.1-1,0.2-1.5,0.2c-0.4,0-0.7,0-1.1-0.1
			c0.7,2.2,2.8,3.9,5.2,3.9c-1.9,1.5-4.3,2.4-7,2.4c-0.5,0-0.9,0-1.3-0.1c2.5,1.6,5.4,2.5,8.6,2.5c10.3,0,16-8.6,16-16
			c0-0.2,0-0.5,0-0.7C83.4,19,84.3,18,85.1,16.9L85.1,16.9z"/>
	</g>
</g>
<g id="XMLID_439_">
	<circle id="XMLID_454_" class="st3" cx="117.8" cy="23.7" r="23.5"/>
	<path id="XMLID_440_" class="st2" d="M127.4,9.6h-19.3c-2.4,0-4.4,2-4.4,4.4v19.3c0,2.4,2,4.4,4.4,4.4h19.3c2.4,0,4.4-2,4.4-4.4
		V14.1C131.8,11.6,129.9,9.6,127.4,9.6z M124.4,12.9l3.5,0h0c0.3,0,0.6,0.3,0.6,0.6V17c0,0.3-0.3,0.6-0.6,0.6l-3.5,0
		c-0.3,0-0.6-0.3-0.6-0.6l0-3.5C123.8,13.2,124.1,12.9,124.4,12.9z M113.5,21.3c0.1-0.2,0.2-0.3,0.3-0.5c0.9-1.2,2.4-2.1,4-2.1
		c1.7,0,3.1,0.8,4,2.1c0.1,0.2,0.2,0.3,0.3,0.5c0.4,0.7,0.6,1.5,0.6,2.4c0,2.7-2.2,5-5,5s-5-2.2-5-5C112.8,22.8,113.1,22,113.5,21.3
		z M129.1,32.3c0,1.5-1.2,2.7-2.7,2.7h-17.3c-1.5,0-2.7-1.2-2.7-2.7V20.8h4.2c-0.1,0.3-0.2,0.5-0.3,0.8c-0.2,0.7-0.3,1.4-0.3,2.1
		c0,4.2,3.5,7.7,7.7,7.7c4.2,0,7.7-3.5,7.7-7.7c0-0.7-0.1-1.4-0.3-2.1c-0.1-0.3-0.2-0.5-0.3-0.8h4.2V32.3z"/>
</g>
<g id="XMLID_436_">
	<circle id="XMLID_438_" class="st3" cx="23.6" cy="23.5" r="23.5"/>
	<path id="XMLID_437_" class="st2" d="M29.5,24.4h-4.2v15.4H19V24.4h-3V19h3v-3.5c0-2.5,1.2-6.4,6.4-6.4l4.7,0v5.2h-3.4
		c-0.6,0-1.3,0.3-1.3,1.5V19h4.7L29.5,24.4z"/>
</g>
<g id="XMLID_417_">
	<g id="XMLID_421_">
		<path id="XMLID_422_" class="st3" d="M211.8,0c-13,0-23.5,10.5-23.5,23.5S198.8,47,211.8,47c13,0,23.5-10.5,23.5-23.5
			C235.3,10.5,224.8,0,211.8,0z M201,38.1c-2.1,0-3.8-1.7-3.8-3.8c0-2.1,1.7-3.8,3.8-3.8c2.1,0,3.8,1.7,3.8,3.8
			C204.8,36.4,203.1,38.1,201,38.1z M210.6,38.2c0-3.6-1.4-7-3.9-9.5c-2.5-2.5-5.9-3.9-9.5-3.9v-5.5c10.5,0,19,8.5,19,19L210.6,38.2
			L210.6,38.2z M220.4,38.1c0-12.8-10.4-23.2-23.2-23.2V9.4c15.8,0,28.7,12.9,28.7,28.7H220.4z"/>
	</g>
</g>
</svg>
