<?xml version="1.0" standalone="no"?><!DOCTYPE svg PUBLIC "-//W3C//DTD SVG 1.1//EN" "http://www.w3.org/Graphics/SVG/1.1/DTD/svg11.dtd"><svg width="100%" height="100%" viewBox="0 0 908 227" version="1.1" xmlns="http://www.w3.org/2000/svg" xmlns:xlink="http://www.w3.org/1999/xlink" xml:space="preserve" style="fill-rule:evenodd;clip-rule:evenodd;stroke-linejoin:round;stroke-miterlimit:1.41421;"><g id="Calque 1"><path d="M70.123,8.709c13.414,-5.557 28.121,-8.625 43.54,-8.625c35.965,0 68.054,16.691 88.903,42.728c1.195,2.492 -0.968,3.394 -7.213,5.645c-21.792,7.854 -36.125,22.984 -42.935,44.838c-4.683,15.031 -1.645,28.632 10.319,39.69c2.382,2.201 4.075,2.726 6.565,-0.052c6.786,-7.572 13.734,-15.021 22.049,-21.01c1.679,-1.209 2.39,-2.605 1.797,-4.699c-3.618,-12.754 0.191,-24.681 4.209,-36.568c0.228,-0.678 0.434,-1.654 1.738,-1.289c-0.443,4.954 -0.937,9.897 -1.313,14.849c-0.393,5.187 0.55,10.296 1.117,15.42c0.408,3.68 1.584,5.172 5.297,2.364c5.32,-4.022 10.761,-7.875 15.827,-12.232c1.207,-1.038 2.527,-3.885 4.219,-2.037c0.092,0.101 0.183,0.207 0.271,0.317c0.388,1.683 0.739,3.38 1.051,5.09c-0.178,0.508 -0.454,1.01 -0.849,1.492c-0.946,1.153 -2.029,2.225 -3.18,3.174c-3.988,3.287 -8.058,6.477 -12.041,9.77c-1.004,0.831 -3.235,2.241 -0.437,3.083c5.472,1.645 11.541,2.565 16.717,0.44c1.45,-0.759 1.35,-0.978 1.116,2.379c-0.133,1.892 -4.197,2.774 -6.579,3.198c-5.644,1.004 -11.332,1.171 -16.943,0.162c-2.951,-0.53 -5.153,0.113 -7.363,1.939c-7.481,6.18 -14.348,12.971 -20.826,20.184c-1.907,2.123 -1.91,3.522 0.491,5.203c11.718,8.21 24.419,12.957 38.994,11.443c2.986,-0.311 4.258,-0.232 4.3,0.94c-11.452,27.89 -33.715,50.236 -61.576,61.836c-2.275,0.344 -3.472,-0.965 -3.901,-4.181c-3.323,-24.909 -0.904,-48.576 15.067,-69.293c1.445,-1.875 2.592,-3.417 0.229,-5.499c-2.557,-2.254 -3.88,-0.36 -5.31,1.272c-8.764,9.999 -14.783,21.334 -16.835,34.593c-0.243,1.571 0.126,3.406 -2.128,4.743c-3.685,-7.233 -6.928,-14.763 -13.2,-20.278c1.292,3.941 3.149,7.552 5.058,11.137c8.124,15.254 7.79,32.154 9.535,48.649c0.214,2.024 -0.735,2.933 -2.196,3.551c-9.571,2.613 -19.645,4.009 -30.044,4.009c-6.587,0 -13.045,-0.56 -19.328,-1.636c-0.134,-0.025 -0.268,-0.052 -0.402,-0.078c-11.898,-2.368 -22.767,-6.037 -32.61,-11.008c-12.552,-6.51 -23.737,-15.286 -33.01,-25.784c-7.325,-8.489 -13.588,-18.328 -18.79,-29.518c-4.82,-10.371 -7.16,-21.327 -8.863,-32.461c-0.329,-2.866 -0.55,-5.764 -0.66,-8.691l0,-8.649c0.104,-2.753 0.306,-5.48 0.603,-8.179c0.022,-0.136 0.043,-0.271 0.063,-0.407c1.877,-13.185 5.33,-25.189 10.351,-36.017c6.799,-14.164 16.457,-26.706 28.225,-36.88c8.819,-7.424 19.078,-13.762 30.771,-19.017l0.11,-0.05ZM132.116,151.262c-0.226,1.126 -0.058,2.57 -1.265,3.094c-1.629,0.707 -2.318,-0.93 -3.157,-1.822c-6.44,-6.842 -13.541,-12.861 -21.734,-17.525c-1.559,-0.888 -2.981,-2.145 -6.563,-2.284c10.438,7.381 18.973,14.719 26.415,23.351c3.308,3.837 3.234,6.813 0.196,10.471c-4.817,5.8 -10.885,7.602 -17.945,5.543c-11.885,-3.466 -19.901,-11.599 -24.457,-22.694c-4.817,-11.734 -9.664,-23.402 -16.196,-34.301c-1.626,-2.714 -0.901,-4.139 2.153,-4.19c17.148,-0.292 34.176,0.468 49.438,9.532c11.443,6.795 15.773,17.57 13.115,30.825Z" style="fill:#008735;"/><path d="M344.924,0c1.529,0.059 3.05,0.147 4.563,0.266c3.051,0.479 6.103,0.955 9.153,1.446c55.14,8.866 95.465,56.224 95.316,111.936c-0.002,0.571 0.056,1.193 0.085,1.809c-0.009,0.509 -0.021,1.018 -0.036,1.526c-0.123,0.882 -0.489,1.638 -1.422,2.063c-1.74,0.792 -3.376,-1.154 -4.736,-2.265c-11.962,-9.764 -25.134,-11.84 -39.493,-6.282c-3.632,1.405 -5.026,0.2 -5.911,-3.385c-3.389,-13.739 -8.957,-26.504 -18.032,-37.556c-1.585,-1.93 -3.321,-3.748 -5.079,-5.527c-1.741,-1.765 -3.599,-3.415 -5.407,-5.116c-0.073,1.323 0.455,1.951 1.038,2.524c12.8,12.63 19.955,28.169 23.583,45.503c1.144,5.469 -0.224,7.136 -5.847,6.723c-3.311,-0.243 -6.586,-1.077 -9.86,-1.731c-9.53,-1.902 -19.099,-3.432 -28.836,-2.015c-2.27,0.33 -4.941,1.171 -5.301,3.875c-0.344,2.592 2.3,3.375 4.062,4.537c3.412,2.249 7.636,2.644 11.53,4.465c-1.873,1.584 -3.565,1.015 -5.155,0.792c-19.039,-2.67 -38.088,-5.263 -57.096,-8.137c-6.493,-0.982 -12.119,1.718 -17.974,3.359c-2.375,0.665 -4.141,2.964 -4.006,5.802c0.125,2.642 2.341,3.319 4.405,4.159c10.548,4.287 21.365,7.666 32.37,10.632c12.098,3.26 24.74,4.862 36.228,9.921c9.483,4.177 19.076,6.235 29.24,5.271c11.064,-1.049 22.067,0.054 33.086,0.354c7.867,0.213 14.935,3.284 21.437,7.691c3.19,2.162 3.945,4.412 1.805,7.928c-12.765,20.966 -30.052,36.762 -52.639,46.799c-11.105,4.935 -22.786,7.354 -34.653,9.122c-3.564,0.338 -7.177,0.511 -10.829,0.511c-5.535,0 -10.979,-0.397 -16.304,-1.164c-1.112,-0.183 -2.221,-0.376 -3.327,-0.589c-8.196,-1.581 -15.906,-3.777 -23.13,-6.587c-40.415,-16.461 -69.245,-55.544 -70.725,-101.487l0.103,-9.827c2.008,-37.789 22.53,-70.699 52.651,-89.819c4.029,-2.502 8.281,-4.833 12.757,-6.993c5.627,-2.63 11.504,-4.811 17.585,-6.499c5.457,-1.416 11.022,-2.422 16.618,-3.291c3.084,-0.374 6.206,-0.623 9.362,-0.744l8.821,0ZM385.621,87.873c3.453,1.613 2.667,3.314 -0.224,4.708c-5.052,2.437 -10.409,3.507 -16.02,3.329c-5.606,0.206 -10.95,-0.908 -16.007,-3.326c-1.026,-0.491 -2.308,-0.951 -2.383,-2.305c-0.079,-1.419 1.217,-1.9 2.248,-2.379c10.783,-5.017 21.605,-5.059 32.386,-0.027ZM401.847,83.4c-0.828,0.944 -1.648,2.445 -3.207,1.862c-1.181,-0.441 -1.248,-1.869 -1.459,-3.012c-2.103,-11.343 0.824,-21.412 7.872,-30.39c0.864,-1.1 1.732,-2.816 3.525,-2.186c1.434,0.505 1.334,2.205 1.581,3.468c0.382,1.95 0.582,3.936 0.785,5.375c-0.541,9.606 -2.998,17.924 -9.097,24.883ZM331.568,65.546c-1.051,-0.373 -2.434,-0.727 -2.428,-2.169c0.007,-1.362 1.339,-1.826 2.304,-2.42c5.866,-3.619 12.298,-5.107 19.521,-4.907c4.217,-0.232 8.626,0.538 12.898,2.212c2.925,1.146 3.507,2.587 0.54,4.308c-10.466,6.065 -21.44,7.016 -32.835,2.976ZM378.748,51.006c-2.202,2.569 -3.705,1.917 -4.264,-1.13c-0.447,-2.445 -0.502,-4.959 -0.614,-6.172c0.079,-10.115 2.723,-18.002 8.648,-24.669c0.837,-0.943 1.683,-2.33 3.29,-1.722c1.258,0.476 1.397,1.85 1.56,2.955c1.698,11.506 -0.969,21.822 -8.62,30.738Z" style="fill:#ccd500;"/><path d="M646.196,31.736c21.456,20.654 34.813,49.661 34.813,81.764c0,48.022 -29.889,89.118 -72.064,105.685c-0.415,-0.73 -0.612,-1.79 -0.608,-3.166c0.032,-11.357 0.01,-22.714 0.004,-34.072c-0.006,-11.017 0.086,-22.036 -0.054,-33.053c-0.054,-4.305 1.62,-6.143 6.032,-6.072c9.71,0.154 19.427,0.051 29.139,0.007c1.31,-0.006 3.121,0.486 3.742,-0.883c0.823,-1.807 -1.179,-2.56 -2.231,-3.518c-14.076,-12.801 -28.224,-25.525 -42.261,-38.37c-4.593,-4.203 -4.467,-4.35 1.185,-6.156c27.153,-8.68 42.885,-30.605 42.408,-59.038c-0.013,-0.793 -0.053,-1.869 -0.105,-3.128ZM492.2,198.396c-0.492,-1.373 -0.715,-2.886 -0.697,-4.57c0.142,-13.037 0.01,-26.076 0.071,-39.115c0.025,-5.998 0.728,-6.655 6.857,-6.705c7.318,-0.058 14.641,0.107 21.957,-0.046c4.394,-0.092 6.091,1.805 6.033,6.095c-0.139,10.158 -0.044,20.319 -0.044,30.478c0.002,10.329 -0.059,20.66 0.031,30.987c0.015,1.652 -0.214,2.82 -0.742,3.508c-12.369,-4.913 -23.674,-11.94 -33.466,-20.632ZM568.315,188.489c-5.962,0 -11.924,-0.084 -17.884,0.031c-3.917,0.075 -5.538,-1.684 -5.505,-5.515c0.088,-9.656 0.072,-19.313 0.032,-28.97c-0.016,-4.232 1.918,-6.131 6.236,-6.091c11.411,0.106 22.823,0.106 34.234,0c4.311,-0.04 6.256,1.852 6.237,6.086c-0.04,9.657 -0.054,19.315 0.034,28.971c0.035,3.826 -1.582,5.594 -5.502,5.519c-5.958,-0.115 -11.92,-0.031 -17.882,-0.031ZM458.136,143.941c0.608,-0.645 1.643,-0.963 2.996,-1.01c0.172,-0.006 0.342,-0.021 0.511,-0.021c18.253,-0.024 16.417,-1.842 16.498,15.156c0.042,8.432 0.007,16.866 0.007,25.299l-0.061,0.018c-9.051,-11.56 -15.911,-24.916 -19.951,-39.442ZM454.771,126.78c-0.509,-4.356 -0.771,-8.788 -0.771,-13.28c0,-62.642 50.86,-113.5 113.505,-113.5c19.777,0 38.38,5.069 54.578,13.978c-1.053,0.629 -2.378,1.418 -3.998,2.417c-9.721,5.998 -16.158,15.964 -21.217,26.466c-5.724,11.889 -8.016,24.391 -8.159,37.432c-0.018,1.599 0.774,3.846 -1.056,4.618c-1.728,0.731 -3.031,-1.195 -4.228,-2.273c-12.617,-11.377 -25.254,-22.735 -37.696,-34.3c-3.062,-2.847 -5.101,-2.785 -8.074,0.093c-18.797,18.198 -37.734,36.256 -56.641,54.343c-7.61,7.281 -15.251,14.533 -22.917,21.759c-0.974,0.917 -1.827,2.608 -3.326,2.247ZM619.598,58.572c-4.1,12.754 -11.691,23.318 -21.383,32.496c-0.987,0.933 -2.398,2.011 -3.573,0.835c-1.704,-1.705 0.362,-2.706 1.345,-3.62c9.361,-8.705 17.754,-18.144 23.611,-29.711Z" style="fill:#fae6b2;"/><path d="M798.88,0.084c1.306,0.05 2.607,0.121 3.901,0.216c0.857,0.249 1.712,0.52 2.586,0.617c48.254,5.319 85.213,36.541 98.568,83.147c1.894,6.605 2.43,13.421 3.687,20.117c0.25,3.074 0.378,6.182 0.378,9.319c0,2.984 -0.115,5.94 -0.342,8.866c-0.5,3.336 -0.996,6.671 -1.502,10.005c-6.889,45.398 -43.83,83.627 -88.971,92.052c-3.853,0.72 -7.717,1.375 -11.579,2.038c-3.659,0.357 -7.369,0.539 -11.121,0.539c-4.067,0 -8.083,-0.214 -12.04,-0.633c-6.321,-1.158 -12.734,-1.84 -18.9,-3.824c-13.834,-4.451 -26.029,-10.374 -36.514,-17.773c-15.053,-11.144 -27.257,-25.921 -35.311,-43.03c-4.464,-10.086 -7.607,-21.254 -9.388,-33.504c-9.161,-63.036 36.839,-120.517 100.308,-127.305c0.763,-0.082 1.511,-0.305 2.259,-0.531c1.719,-0.144 3.45,-0.25 5.191,-0.316l8.79,0ZM770.941,159.141c-0.154,-0.309 -0.281,-0.84 -0.609,-1.17c-4.09,-4.112 -8.143,-8.268 -12.358,-12.251c-1.732,-1.636 -3.082,-0.411 -3.861,1.296c-2.684,5.882 -5.301,11.793 -7.93,17.7c-0.754,1.696 -0.513,3.203 0.889,4.516c1.265,1.182 2.658,1.266 4.137,0.592c6.031,-2.756 12.056,-5.526 18.07,-8.324c0.9,-0.419 1.785,-0.963 1.662,-2.359ZM776.634,155.292c0.672,-0.468 1.717,-1.004 2.52,-1.787c12.262,-11.975 24.475,-24.004 36.752,-35.966c2.029,-1.976 2.553,-3.648 0.248,-5.825c-3.873,-3.655 -7.629,-7.436 -11.348,-11.248c-2.125,-2.177 -3.916,-1.843 -5.945,0.157c-12.211,12.031 -24.449,24.032 -36.729,35.99c-2.029,1.976 -2.566,3.635 -0.25,5.814c3.879,3.648 7.586,7.477 11.385,11.211c0.828,0.814 1.686,1.635 3.367,1.654ZM830.527,63.405c0.709,3.792 1.225,6.91 1.902,9.993c0.28,1.278 0.709,2.616 2.61,2.308c4.381,-0.709 9.836,-7.068 9.877,-11.584c0.086,-9.311 -3.621,-17.457 -7.575,-25.603c-2.009,-4.139 -4.4,-4.524 -7.798,-1.987c-1.065,0.795 -2.118,1.625 -3.073,2.543c-10.701,10.276 -11.775,27.389 -2.611,41.232c2.807,4.24 2.131,7.469 -1.84,11.348c-3.422,3.341 -5.289,0.502 -7.404,-1.498c-2.949,-2.787 -4.692,-0.428 -6.666,1.387c-2.069,1.902 -2.582,3.691 -0.305,5.871c3.61,3.454 7.207,6.932 10.592,10.601c2.689,2.916 4.719,2.526 7.475,-0.081c3.148,-2.978 2.076,-4.937 -0.497,-7.355c-1.521,-1.43 -4.431,-3.381 -0.906,-5.421c3.26,-1.886 6.883,-3.642 10.897,-1.931c14.562,6.205 28.599,4.319 42.418,-2.503c7.099,-3.505 7.572,-5.382 2.257,-11.272c-11.076,-12.276 -32.625,-12.623 -45.121,-0.776c-1.468,1.393 -2.547,3.367 -5.689,4.297c4.269,-6.668 -0.473,-12.948 1.457,-19.569Z" style="fill:#d7bea3;"/></g></svg>