<?xml version="1.0" standalone="no"?><!DOCTYPE svg PUBLIC "-//W3C//DTD SVG 1.1//EN" "http://www.w3.org/Graphics/SVG/1.1/DTD/svg11.dtd"><svg width="100%" height="100%" viewBox="0 0 318 318" version="1.1" xmlns="http://www.w3.org/2000/svg" xmlns:xlink="http://www.w3.org/1999/xlink" xml:space="preserve" style="fill-rule:evenodd;clip-rule:evenodd;stroke-linejoin:round;stroke-miterlimit:1.41421;"><g><path d="M301.934,143.021l-286.043,0c-8.772,0 -15.891,7.119 -15.891,15.891c0,8.772 7.119,15.891 15.891,15.891l286.042,0c8.74,0 15.891,-7.119 15.891,-15.891c0.001,-8.772 -7.15,-15.891 -15.89,-15.891Z" style="fill:#333;fill-rule:nonzero;"/><path d="M15.891,79.782l286.042,0c8.74,0 15.891,-7.119 15.891,-15.891c0,-8.772 -7.151,-15.891 -15.891,-15.891l-286.042,0c-8.772,0 -15.891,7.119 -15.891,15.891c0,8.772 7.119,15.891 15.891,15.891Z" style="fill:#333;fill-rule:nonzero;"/><path d="M301.934,238.369l-286.043,0c-8.772,0 -15.891,7.151 -15.891,15.891c0,8.74 7.119,15.891 15.891,15.891l286.042,0c8.74,0 15.891,-7.151 15.891,-15.891c0.001,-8.74 -7.15,-15.891 -15.89,-15.891Z" style="fill:#333;fill-rule:nonzero;"/></g></svg>