<?xml version="1.0" standalone="no"?><!DOCTYPE svg PUBLIC "-//W3C//DTD SVG 1.1//EN" "http://www.w3.org/Graphics/SVG/1.1/DTD/svg11.dtd"><svg width="100%" height="100%" viewBox="0 0 235 94" version="1.1" xmlns="http://www.w3.org/2000/svg" xmlns:xlink="http://www.w3.org/1999/xlink" xml:space="preserve" style="fill-rule:evenodd;clip-rule:evenodd;stroke-linejoin:round;stroke-miterlimit:1.41421;"><path id="XMLID_396_" d="M164.467,47.021c-13,0 -23.5,10.495 -23.5,23.489c0,12.995 10.5,23.49 23.5,23.49c13,0 23.5,-10.495 23.5,-23.49c0,-12.994 -10.5,-23.489 -23.5,-23.489ZM178.367,64.113c-1.6,8.896 -10.4,16.393 -13,18.092c-2.6,1.699 -5.1,-0.7 -5.9,-2.499c-1,-2.099 -4,-13.294 -4.8,-14.194c-0.8,-0.899 -3.1,0.9 -3.1,0.9l-1.1,-1.499c0,0 4.8,-5.698 8.4,-6.397c3.9,-0.8 3.9,5.897 4.8,9.695c0.9,3.599 1.5,5.698 2.3,5.698c0.8,0 2.3,-1.999 3.9,-5.098c1.7,-3.099 -0.1,-5.797 -3.3,-3.898c1.3,-7.797 13.4,-9.696 11.8,-0.8l0,0Z" style="fill:#bace1b;fill-rule:nonzero;"/><path d="M70.467,47.021c12.97,0 23.5,10.525 23.5,23.489c0,12.965 -10.53,23.49 -23.5,23.49c-12.97,0 -23.5,-10.525 -23.5,-23.49c0,-12.964 10.53,-23.489 23.5,-23.489ZM84.867,63.913c-1,0.4 -2.1,0.7 -3.2,0.9c1.2,-0.7 2.1,-1.799 2.5,-3.099c-1.1,0.6 -2.3,1.1 -3.6,1.4c-1,-1.1 -2.5,-1.8 -4.1,-1.8c-3.1,0 -5.6,2.499 -5.6,5.598c0,0.4 0,0.899 0.1,1.299c-4.7,-0.2 -8.8,-2.499 -11.6,-5.897c-0.5,0.8 -0.8,1.799 -0.8,2.799c0,1.899 1,3.698 2.5,4.698c-0.9,0 -1.8,-0.3 -2.5,-0.7l0,0.1c0,2.699 1.9,4.998 4.5,5.497c-0.5,0.1 -1,0.2 -1.5,0.2c-0.4,0 -0.7,0 -1.1,-0.1c0.7,2.199 2.8,3.899 5.2,3.899c-1.9,1.499 -4.3,2.399 -7,2.399c-0.5,0 -0.9,0 -1.3,-0.1c2.5,1.599 5.4,2.499 8.6,2.499c10.3,0 16,-8.597 16,-15.993c0,-0.2 0,-0.5 0,-0.7c1.2,-0.8 2.1,-1.799 2.9,-2.899l0,0Z" style="fill:#bace1b;"/><path d="M117.467,47c12.97,0 23.5,10.53 23.5,23.5c0,12.97 -10.53,23.5 -23.5,23.5c-12.97,0 -23.5,-10.53 -23.5,-23.5c0,-12.97 10.53,-23.5 23.5,-23.5l0,0ZM127.067,56.4l-19.3,0c-2.4,0 -4.4,2 -4.4,4.4l0,19.3c0,2.4 2,4.4 4.4,4.4l19.3,0c2.4,0 4.4,-2 4.4,-4.4l0,-19.2c0.1,-2.5 -1.9,-4.5 -4.4,-4.5l0,0ZM126.067,81.8l-17.3,0c-1.5,0 -2.7,-1.2 -2.7,-2.7l0,-11.5l4.2,0c-0.1,0.3 -0.2,0.5 -0.3,0.8c-0.2,0.7 -0.3,1.4 -0.3,2.1c0,4.2 3.5,7.7 7.7,7.7c4.2,0 7.7,-3.5 7.7,-7.7c0,-0.7 -0.1,-1.4 -0.3,-2.1c-0.037,-0.112 -0.075,-0.211 -0.112,-0.306l-0.075,-0.188c-0.038,-0.095 -0.076,-0.194 -0.113,-0.306l4.2,0l0,11.5l0.1,0c0,1.5 -1.2,2.7 -2.7,2.7ZM113.167,68.1c0.1,-0.2 0.2,-0.3 0.3,-0.5c0.9,-1.2 2.4,-2.1 4,-2.1c1.7,0 3.1,0.8 4,2.1c0.1,0.2 0.2,0.3 0.3,0.5c0.4,0.7 0.6,1.5 0.6,2.4c0,2.7 -2.2,5 -5,5c-2.8,0 -5,-2.2 -5,-5c0.1,-0.9 0.4,-1.7 0.8,-2.4l0,0ZM127.567,64.4l-3.5,0c-0.3,0 -0.6,-0.3 -0.6,-0.6l0,-3.5c0,-0.3 0.3,-0.6 0.6,-0.6l3.5,0c0.3,0 0.6,0.3 0.6,0.6l0,3.5c0,0.3 -0.3,0.6 -0.6,0.6l0,0Z" style="fill:#bace1b;"/><path d="M23.484,47c12.961,0 23.483,10.53 23.483,23.5c0,12.97 -10.522,23.5 -23.483,23.5c-12.961,0 -23.484,-10.53 -23.484,-23.5c0,-12.97 10.523,-23.5 23.484,-23.5ZM29.879,61.3l0,-5.2l-4.697,0c-5.196,0 -6.395,3.9 -6.395,6.4l0,3.5l-2.998,0l0,5.4l2.998,0l0,15.4l6.395,0l0,-15.4l4.197,0l0.6,-5.4l-4.797,0l0,-3.2c0,-1.2 0.7,-1.5 1.3,-1.5l3.397,0Z" style="fill:#bace1b;"/><path id="XMLID_420_" d="M211.467,47.021c-13,0 -23.5,10.495 -23.5,23.489c0,12.995 10.5,23.49 23.5,23.49c13,0 23.5,-10.495 23.5,-23.49c0,-12.994 -10.5,-23.489 -23.5,-23.489ZM200.667,85.104c-2.1,0 -3.8,-1.699 -3.8,-3.798c0,-2.1 1.7,-3.799 3.8,-3.799c2.1,0 3.8,1.699 3.8,3.799c0,2.099 -1.7,3.798 -3.8,3.798ZM210.267,85.204c0,-3.599 -1.4,-6.997 -3.9,-9.496c-2.5,-2.499 -5.9,-3.898 -9.5,-3.898l0,-5.498c10.5,0 19,8.496 19,18.992l-5.6,-0.1ZM220.067,85.104c0,-12.794 -10.4,-23.19 -23.2,-23.19l0,-5.498c15.8,0 28.7,12.895 28.7,28.688l-5.5,0Z" style="fill:#bace1b;fill-rule:nonzero;"/><path id="XMLID_461_" d="M164.467,0.032c-13,0 -23.5,10.493 -23.5,23.484c0,12.991 10.5,23.484 23.5,23.484c13,0 23.5,-10.493 23.5,-23.484c0,-12.991 -10.5,-23.484 -23.5,-23.484ZM178.367,17.121c-1.6,8.893 -10.4,16.388 -13,18.087c-2.6,1.699 -5.1,-0.699 -5.9,-2.498c-1,-2.099 -4,-13.291 -4.8,-14.19c-0.8,-0.9 -3.1,0.899 -3.1,0.899l-1.1,-1.499c0,0 4.8,-5.696 8.4,-6.396c3.9,-0.799 3.9,5.896 4.8,9.694c0.9,3.597 1.5,5.696 2.3,5.696c0.8,0 2.3,-1.999 3.9,-5.097c1.7,-3.098 -0.1,-5.796 -3.3,-3.897c1.2,-7.795 13.4,-9.693 11.8,-0.799l0,0Z" style="fill:#eaead9;fill-rule:nonzero;"/><path d="M70.467,0.032c12.97,0 23.5,10.528 23.5,23.494c0,12.967 -10.53,23.495 -23.5,23.495c-12.97,0 -23.5,-10.528 -23.5,-23.495c0,-12.966 10.53,-23.494 23.5,-23.494ZM84.867,16.928c-1,0.4 -2.1,0.7 -3.2,0.9c1.2,-0.7 2.1,-1.8 2.5,-3.099c-1.1,0.599 -2.3,1.099 -3.6,1.399c-1,-1.099 -2.5,-1.799 -4.1,-1.799c-3.1,0 -5.6,2.499 -5.6,5.598c0,0.4 0,0.9 0.1,1.3c-4.7,-0.2 -8.8,-2.499 -11.6,-5.899c-0.5,0.8 -0.8,1.8 -0.8,2.8c0,1.899 1,3.699 2.5,4.699c-0.9,0 -1.8,-0.3 -2.5,-0.7l0,0.1c0,2.699 1.9,4.998 4.5,5.498c-0.5,0.1 -1,0.2 -1.5,0.2c-0.4,0 -0.7,0 -1.1,-0.1c0.7,2.2 2.8,3.899 5.2,3.899c-1.9,1.5 -4.3,2.4 -7,2.4c-0.5,0 -0.9,0 -1.3,-0.1c2.5,1.599 5.4,2.499 8.6,2.499c10.3,0 16,-8.598 16,-15.996c0,-0.2 0,-0.5 0,-0.7c1.2,-0.799 2.1,-1.799 2.9,-2.899l0,0Z" style="fill:#eaead9;"/><path d="M117.505,0.032c12.972,0 23.503,10.523 23.503,23.484c0,12.961 -10.531,23.484 -23.503,23.484c-12.971,0 -23.502,-10.523 -23.502,-23.484c0,-12.961 10.531,-23.484 23.502,-23.484l0,0ZM127.106,9.426l-19.302,0c-2.4,0 -4.4,1.998 -4.4,4.397l0,19.287c0,2.398 2,4.397 4.4,4.397l19.302,0c2.401,0 4.401,-1.999 4.401,-4.397l0,-19.187c0,-2.499 -1.9,-4.497 -4.401,-4.497l0,0ZM126.106,34.808l-17.302,0c-1.5,0 -2.7,-1.199 -2.7,-2.698l0,-11.492l4.2,0c-0.1,0.3 -0.2,0.5 -0.3,0.8c-0.2,0.699 -0.3,1.399 -0.3,2.098c0,4.197 3.501,7.695 7.701,7.695c4.201,0 7.701,-3.498 7.701,-7.695c0,-0.699 -0.1,-1.399 -0.3,-2.098c-0.1,-0.3 -0.2,-0.5 -0.3,-0.8l4.201,0l0,11.492l0.1,0c0,1.499 -1.201,2.698 -2.701,2.698l0,0ZM113.205,21.118c0.1,-0.2 0.2,-0.3 0.3,-0.5c0.9,-1.199 2.4,-2.098 4,-2.098c1.7,0 3.101,0.799 4.001,2.098c0.1,0.2 0.2,0.3 0.3,0.5c0.4,0.699 0.6,1.499 0.6,2.398c0,2.698 -2.2,4.997 -5.001,4.997c-2.8,0 -5,-2.199 -5,-4.997c0.1,-0.899 0.4,-1.699 0.8,-2.398l0,0ZM127.606,17.42l-3.5,0c-0.3,0 -0.6,-0.299 -0.6,-0.599l0,-3.498c0,-0.3 0.3,-0.599 0.6,-0.599l3.5,0c0.3,0 0.601,0.299 0.601,0.599l0,3.498c0,0.3 -0.301,0.599 -0.601,0.599Z" style="fill:#eaead9;"/><path d="M23.51,0c12.975,0 23.51,10.535 23.51,23.51c0,12.976 -10.535,23.511 -23.51,23.511c-12.976,0 -23.51,-10.535 -23.51,-23.511c0,-12.975 10.534,-23.51 23.51,-23.51ZM30.012,14.306l0,-5.202l-4.701,0c-5.203,0 -6.403,3.902 -6.403,6.403l0,3.501l-3.001,0l0,5.403l3.001,0l0,15.406l6.302,0l0,-15.406l4.202,0l0.6,-5.403l-4.701,0l0,-3.201c0,-1.201 0.7,-1.501 1.3,-1.501l3.401,0Z" style="fill:#eaead9;"/><path id="XMLID_422_" d="M211.482,0.032c-13.008,0 -23.515,10.493 -23.515,23.484c0,12.991 10.507,23.484 23.515,23.484c13.008,0 23.515,-10.493 23.515,-23.484c0,-12.991 -10.507,-23.484 -23.515,-23.484ZM200.675,38.106c-2.101,0 -3.802,-1.699 -3.802,-3.797c0,-2.099 1.701,-3.798 3.802,-3.798c2.102,0 3.803,1.699 3.803,3.798c0,2.098 -1.701,3.797 -3.803,3.797ZM210.281,38.206c0,-3.597 -1.401,-6.995 -3.902,-9.493c-2.502,-2.499 -5.904,-3.898 -9.506,-3.898l0,-5.496c10.507,0 19.012,8.494 19.012,18.987l-5.604,-0.1ZM220.088,38.106c0,-12.791 -10.407,-23.184 -23.215,-23.184l0,-5.496c15.81,0 28.718,12.891 28.718,28.68l-5.503,0Z" style="fill:#eaead9;fill-rule:nonzero;"/></svg>