<?xml version="1.0" encoding="utf-8"?>
<!-- Generator: Adobe Illustrator 19.0.0, SVG Export Plug-In . SVG Version: 6.00 Build 0)  -->
<svg version="1.1" id="Calque_1" xmlns="http://www.w3.org/2000/svg" xmlns:xlink="http://www.w3.org/1999/xlink" x="0px" y="0px"
	 viewBox="0 0 545 200" style="enable-background:new 0 0 545 200;" xml:space="preserve">
<style type="text/css">
	.st0{fill:#CDD500;}
</style>
<g id="XMLID_2_">
	<path id="XMLID_13_" d="M46.7,63.1c5.7,0,11,1.1,16,3.2c5,2.1,9.3,5.1,13.1,8.8c3.7,3.7,6.6,8.1,8.8,13c2.1,5,3.2,10.3,3.2,16
		c0,5.6-1.1,11-3.2,16c-2.1,5-5.1,9.3-8.8,13c-3.7,3.7-8.1,6.6-13.1,8.8c-5,2.1-10.3,3.2-16,3.2c-5.7,0-11-1.1-16-3.2
		c-5-2.1-9.3-5.1-13.1-8.8c-3.7-3.7-6.7-8.1-8.8-13c-2.2-5-3.2-10.3-3.2-16c0-5.7,1.1-11,3.2-16c2.2-5,5.1-9.3,8.8-13
		c3.7-3.7,8.1-6.6,13.1-8.8C35.7,64.1,41,63.1,46.7,63.1z M82.4,104c0-4.9-0.9-9.6-2.8-13.9c-1.9-4.3-4.4-8.1-7.7-11.4
		c-3.2-3.3-7-5.8-11.4-7.7c-4.3-1.9-9-2.8-13.9-2.8c-4.9,0-9.6,0.9-13.9,2.8c-4.3,1.9-8.1,4.4-11.4,7.7c-3.2,3.2-5.8,7-7.7,11.4
		c-1.9,4.3-2.8,9-2.8,13.9c0,4.9,0.9,9.6,2.8,13.9c1.9,4.3,4.4,8.1,7.7,11.4c3.2,3.3,7,5.8,11.4,7.7c4.3,1.9,9,2.8,13.9,2.8
		c4.9,0,9.6-0.9,13.9-2.8c4.3-1.9,8.1-4.4,11.4-7.7c3.2-3.2,5.8-7,7.7-11.4C81.5,113.6,82.4,109,82.4,104z"/>
	<path id="XMLID_11_" d="M420.5,92.3V145h-6V92.3H420.5z"/>
	<path id="XMLID_10_" class="st0" d="M412.8,67.3c0-1.4,0.5-2.6,1.5-3.5c1-1,2.2-1.4,3.6-1.4c1.4,0,2.6,0.5,3.5,1.4
		c1,1,1.5,2.2,1.5,3.5c0,1.4-0.5,2.6-1.5,3.5c-1,1-2.1,1.5-3.5,1.5c-1.4,0-2.6-0.5-3.6-1.5C413.3,69.9,412.8,68.7,412.8,67.3z"/>
	<g id="XMLID_8_">
		<polygon id="XMLID_9_" points="218.6,145.2 191.4,77 164.2,145.2 158.3,145.2 191.3,62.3 224.5,145.2 		"/>
	</g>
	<path id="XMLID_7_" class="st0" d="M186.2,119.4c0-1.4,0.5-2.6,1.5-3.5c1-1,2.2-1.5,3.6-1.5c1.4,0,2.6,0.5,3.5,1.5
		c1,1,1.5,2.2,1.5,3.5c0,1.4-0.5,2.6-1.5,3.5c-1,1-2.1,1.5-3.5,1.5c-1.4,0-2.6-0.5-3.6-1.5C186.7,122,186.2,120.8,186.2,119.4z"/>
	<path id="XMLID_5_" d="M312.6,68.1c-1.8,0-3.5,0.3-5,1c-1.5,0.7-2.8,1.5-3.8,2.7c-1.1,1.1-1.9,2.4-2.5,4c-0.6,1.5-0.9,3.2-0.9,4.9
		c0,0.9,0.2,2.1,0.5,3.6c0.3,1.4,1,2.8,2.1,4.2c1.1,1.3,2.5,2.5,4.5,3.4c3.8,1.8,9.9,1.5,15,3.5c2.8,1.1,5.5,2.7,7.8,4.9
		c2.3,2.2,4.2,4.9,5.7,8c1.5,3.1,2.3,6.6,2.3,10.4c0,2.7-0.5,5.5-1.6,8.6c-1.1,3.1-2.7,5.9-4.9,8.6c-2.2,2.6-5,4.8-8.4,6.6
		c-3.4,1.7-7.4,2.6-12.1,2.6c-3.2,0-6.2-0.6-9.2-1.8c-2.9-1.2-5.5-2.8-7.8-4.8c-2.3-2-4.1-4.4-5.5-7.1c-1.4-2.7-2.2-5.6-2.3-8.6h5.5
		c0.2,1.8,0.7,3.8,1.7,5.8c0.9,2.1,2.3,3.9,4,5.6c1.7,1.7,3.7,3.1,6.1,4.2c2.4,1.1,5,1.7,8,1.7c2.4,0,4.9-0.4,7.4-1.3
		c2.5-0.9,4.8-2.2,6.8-4c2-1.8,3.7-4,4.9-6.7c1.3-2.7,1.9-5.8,1.9-9.4c0-2.8-0.6-5.4-1.9-7.8c-1.3-2.4-2.8-4.6-4.6-6.4
		c-1.8-1.8-4-3.1-6-4.1c-4.3-2-8-1.3-12.5-2.8c-2.4-0.8-4.6-1.7-6.5-3.1c-1.9-1.4-3.5-3.3-4.7-5.6c-1.2-2.3-1.8-5-1.8-8.3
		c0-1.6,0.3-3.5,0.9-5.6c0.6-2.1,1.6-4.1,3-6c1.4-1.9,3.2-3.4,5.5-4.7c2.3-1.3,5.1-1.9,8.4-1.9c3.5,0,6.5,0.7,8.7,2
		c2.3,1.3,4.1,2.9,5.4,4.7c1.3,1.8,2.3,3.6,2.8,5.5c0.5,1.9,0.8,3.4,1,4.5H325c-0.1-1.7-0.6-3.3-1.4-4.7c-0.8-1.4-1.8-2.6-3-3.5
		c-1.2-1-2.5-1.7-3.9-2.2C315.3,68.3,313.9,68.1,312.6,68.1z"/>
	<path id="XMLID_3_" d="M515.1,68.1c-1.8,0-3.5,0.3-5,1c-1.5,0.7-2.8,1.5-3.8,2.7c-1.1,1.1-1.9,2.4-2.5,4c-0.6,1.5-0.9,3.2-0.9,4.9
		c0,0.9,0.2,2.1,0.5,3.6c0.3,1.4,1,2.8,2.1,4.2c1.1,1.3,2.5,2.5,4.5,3.4c3.8,1.8,9.9,1.5,15,3.5c2.8,1.1,5.5,2.7,7.8,4.9
		c2.3,2.2,4.2,4.9,5.7,8c1.5,3.1,2.3,6.6,2.3,10.4c0,2.7-0.5,5.5-1.6,8.6c-1.1,3.1-2.7,5.9-4.9,8.6c-2.2,2.6-5,4.8-8.4,6.6
		c-3.4,1.7-7.4,2.6-12.1,2.6c-3.2,0-6.2-0.6-9.2-1.8c-2.9-1.2-5.5-2.8-7.8-4.8c-2.3-2-4.1-4.4-5.5-7.1c-1.4-2.7-2.2-5.6-2.3-8.6h5.5
		c0.2,1.8,0.7,3.8,1.7,5.8c0.9,2.1,2.3,3.9,4,5.6c1.7,1.7,3.7,3.1,6.1,4.2c2.4,1.1,5,1.7,8,1.7c2.4,0,4.9-0.4,7.4-1.3
		c2.5-0.9,4.8-2.2,6.8-4c2-1.8,3.7-4,4.9-6.7c1.3-2.7,1.9-5.8,1.9-9.4c0-2.8-0.6-5.4-1.9-7.8c-1.3-2.4-2.8-4.6-4.6-6.4
		c-1.8-1.8-4-3.1-6-4.1c-4.3-2-8-1.3-12.5-2.8c-2.4-0.8-4.6-1.7-6.5-3.1c-1.9-1.4-3.5-3.3-4.7-5.6c-1.2-2.3-1.8-5-1.8-8.3
		c0-1.6,0.3-3.5,0.9-5.6c0.6-2.1,1.6-4.1,3-6c1.4-1.9,3.2-3.4,5.5-4.7c2.3-1.3,5.1-1.9,8.4-1.9c3.5,0,6.5,0.7,8.7,2
		c2.3,1.3,4.1,2.9,5.4,4.7c1.3,1.8,2.3,3.6,2.8,5.5c0.5,1.9,0.8,3.4,1,4.5h-5.5c-0.1-1.7-0.6-3.3-1.4-4.7c-0.8-1.4-1.8-2.6-3-3.5
		c-1.2-1-2.5-1.7-3.9-2.2C517.8,68.3,516.4,68.1,515.1,68.1z"/>
</g>
</svg>
