<?xml version="1.0" encoding="utf-8"?>
<!-- Generator: Adobe Illustrator 19.0.0, SVG Export Plug-In . SVG Version: 6.00 Build 0)  -->
<svg version="1.1" id="Calque_1" xmlns="http://www.w3.org/2000/svg" xmlns:xlink="http://www.w3.org/1999/xlink" x="0px" y="0px"
	 viewBox="0 0 63 78" style="enable-background:new 0 0 63 78;" xml:space="preserve">
<style type="text/css">
	.st0{fill:#FFFFFF;}
	.st1{fill:none;}
	.st2{fill:#DCCCB9;}
	.st3{fill:#CDD500;}
	.st4{fill:#FEEDC8;}
	.st5{fill:#008A3B;}
</style>
<rect id="XMLID_50_" x="1.772" y="2.369" class="st0" width="59.433" height="59.455"/>
<rect id="XMLID_49_" x="1.772" y="2.369" class="st0" width="59.433" height="59.455"/>
<g id="XMLID_28_">
	<path id="XMLID_48_" class="st1" d="M61.228,2.369h-1.382c0.199,0.952,0.695,3.246,1.382,6.009V2.369z"/>
	<g id="XMLID_45_">
		<path id="XMLID_18_" class="st2" d="M27.606,38.784c-0.993-0.545-1.932-1.055-2.796-1.518c-0.987,2.851-6.268,18.458-6.794,18.478
			c-0.489,0.02-10.066-9.605-11.76-11.311c-0.537,0.755-1.086,1.526-1.64,2.302l14.907,15.09h4.052
			c-0.891-1.093-2.398-3.108-2.344-4.195C21.303,56.165,27.065,40.271,27.606,38.784z"/>
	</g>
	<g id="XMLID_42_">
		<path id="XMLID_16_" class="st3" d="M6.255,44.432c3.656-5.134,6.781-9.538,7.269-10.27c-0.018,0.001-0.036,0.001-0.054,0.002
			c-1.245,0.048-2.471,0.304-3.54,0.442c-0.048,0.006-0.095,0.011-0.142,0.017c-0.444,0.761-1.581,2.616-2.09,2.581
			C7.059,37.163,1.924,24.751,1.921,23.22C1.919,22.064,7.58,10.474,8.639,8.317c-1.26-2.788-2.276-5.014-2.702-5.948H5.888
			C5.307,4.079,3.356,9.79,1.772,14.107v21.376c1.298,3.096,2.134,5.165,2.129,5.344c-0.005,0.186-0.844,1.46-2.129,3.305v6.59
			c0.939-1.317,1.898-2.661,2.843-3.988C5.169,45.958,5.718,45.187,6.255,44.432z"/>
	</g>
	<g id="XMLID_39_">
		<path id="XMLID_14_" class="st4" d="M28.582,10.541c0.204,0.709,0.416,1.443,0.633,2.198c0.626,2.176,1.297,4.514,1.968,6.861
			c2.328,8.14,4.555,17.122,4.962,19.812c1.272,0.777,2.555,1.545,3.812,2.281c-0.031-1.779-0.112-7.444,0.096-8.452
			c0.234-1.135,8.672-21.649,9.569-23.829l-2.167-2.808c-0.627,1.641-8.272,21.596-9.129,21.575
			c-0.726-0.016-7.094-21.647-8.313-25.81h-3.791c0.238,0.823,0.677,2.338,1.244,4.301C27.798,7.823,28.175,9.131,28.582,10.541z"/>
	</g>
	<g id="XMLID_36_">
		<path id="XMLID_12_" class="st4" d="M36.514,43.802c-0.032,1.171-0.412,14.694-1.067,18.023h3.605
			c0.644-3.098,1.017-14.9,1.048-15.934C38.927,45.2,37.724,44.499,36.514,43.802z"/>
	</g>
	<g id="XMLID_33_">
		<path id="XMLID_10_" class="st3" d="M49.622,9.412l1.18,1.529l2.974,3.854l5.991,7.763c0,0,0.592,0.886,1.461,2.214V8.378
			c-0.687-2.762-1.182-5.057-1.382-6.009h-3.343c1.281,2.752,2.693,11.808,2.295,11.924c-0.395,0.114-7.051-9.372-9.779-11.924
			h-4.832l3.268,4.234L49.622,9.412z"/>
	</g>
	<g id="XMLID_30_">
		<path id="XMLID_8_" class="st3" d="M20.019,25.771l9.195-13.032c-0.217-0.754-0.428-1.489-0.633-2.198
			c-0.316,0.455-0.953,1.376-1.496,2.209c-0.757,1.16-1.569,2.283-1.785,2.134c-0.217-0.149,0.282-2.34,0.835-4.493
			c0.382-1.487,0.99-2.955,1.33-3.722c-0.567-1.963-1.005-3.477-1.244-4.301h-2.287c-2.494,15.45-5.093,19.55-5.624,20.252
			C18.894,23.741,19.468,24.803,20.019,25.771z"/>
	</g>
	<path id="XMLID_29_" class="st5" d="M61.228,38.45c-2.377,5.965-5.196,12.347-5.409,9.124c-0.369-5.548-2.015-32.333-2.042-32.779
		l-2.974-3.854c0.084,1.084,2.747,35.516,1.302,36.633c-0.613,0.474-6.079-2.331-12.147-5.881c-1.257-0.736-2.54-1.504-3.812-2.281
		c-5.653-3.456-11.071-7.1-12.929-8.952c-0.868-0.866-1.978-2.551-3.197-4.69c-0.552-0.968-1.126-2.03-1.709-3.15
		C14.342,15.009,9.923,4.687,8.94,2.369H5.936c0.427,0.934,1.442,3.16,2.702,5.948c3.567,7.891,9.094,20.284,8.8,20.662
		c-0.433,0.555-12.625,2.26-12.625,2.26l1.568,3.625c0,0,1.499-0.004,3.407-0.241c0.048-0.006,0.094-0.011,0.142-0.017
		c1.069-0.138,2.295-0.394,3.54-0.442c0.018,0,0.036-0.001,0.054-0.002c2.3-0.087,4.743-0.087,6.555,0.702
		c0.901,0.392,2.587,1.253,4.73,2.401c0.865,0.463,1.804,0.973,2.796,1.518c2.715,1.49,5.827,3.242,8.908,5.018
		c1.21,0.698,2.413,1.398,3.586,2.089c5.946,3.498,11.086,6.718,12.004,7.773c1.761,2.025,2.077,6.588,2.133,8.161h3.72
		c0.348-5.681,1.713-11.157,3.27-15.754V38.45z"/>
</g>
<g id="XMLID_2_">
	<path id="XMLID_25_" d="M6.36,66.514c0.628,0,1.219,0.118,1.773,0.355c0.554,0.237,1.037,0.561,1.45,0.973
		c0.412,0.412,0.737,0.895,0.974,1.448c0.236,0.554,0.355,1.144,0.355,1.771c0,0.626-0.119,1.217-0.355,1.771
		c-0.237,0.553-0.562,1.036-0.974,1.448c-0.413,0.412-0.896,0.736-1.45,0.973c-0.554,0.237-1.144,0.355-1.773,0.355
		c-0.628,0-1.219-0.119-1.773-0.355c-0.554-0.238-1.037-0.561-1.45-0.973c-0.412-0.412-0.739-0.895-0.979-1.448
		c-0.24-0.554-0.36-1.145-0.36-1.771c0-0.627,0.12-1.218,0.36-1.771c0.24-0.554,0.567-1.036,0.979-1.448
		c0.413-0.412,0.896-0.736,1.45-0.973C5.141,66.632,5.732,66.514,6.36,66.514z M10.321,71.062c0-0.549-0.104-1.063-0.31-1.544
		c-0.206-0.481-0.489-0.901-0.85-1.262c-0.36-0.361-0.78-0.645-1.26-0.85c-0.48-0.207-0.994-0.31-1.542-0.31
		c-0.548,0-1.062,0.103-1.542,0.31c-0.481,0.206-0.901,0.49-1.261,0.85c-0.36,0.36-0.643,0.781-0.849,1.262
		c-0.206,0.481-0.31,0.995-0.31,1.544c0,0.548,0.103,1.063,0.31,1.544c0.206,0.481,0.489,0.902,0.849,1.262
		c0.36,0.361,0.78,0.644,1.261,0.85c0.48,0.207,0.994,0.31,1.542,0.31c0.548,0,1.062-0.103,1.542-0.31
		c0.48-0.207,0.9-0.489,1.26-0.85c0.36-0.36,0.643-0.781,0.85-1.262C10.218,72.125,10.321,71.61,10.321,71.062z"/>
	<path id="XMLID_23_" d="M47.849,69.762v5.848h-0.666v-5.848H47.849z"/>
	<path id="XMLID_22_" class="st3" d="M46.99,66.989c0-0.154,0.055-0.285,0.166-0.393c0.111-0.107,0.243-0.16,0.397-0.16
		c0.154,0,0.284,0.053,0.392,0.16c0.108,0.108,0.162,0.24,0.162,0.393c0,0.154-0.054,0.285-0.162,0.393
		c-0.108,0.107-0.238,0.162-0.392,0.162c-0.154,0-0.286-0.055-0.397-0.162C47.046,67.274,46.99,67.143,46.99,66.989z"/>
	<g id="XMLID_20_">
		<polygon id="XMLID_21_" points="25.44,75.624 22.424,68.063 19.405,75.63 18.743,75.631 22.404,66.43 26.089,75.631 		"/>
	</g>
	<path id="XMLID_19_" class="st3" d="M21.846,72.769c0-0.153,0.055-0.285,0.166-0.392c0.111-0.108,0.243-0.161,0.397-0.161
		c0.154,0,0.285,0.054,0.393,0.161c0.107,0.108,0.162,0.239,0.162,0.392c0,0.154-0.054,0.285-0.162,0.393
		c-0.108,0.108-0.238,0.162-0.393,0.162c-0.154,0-0.286-0.054-0.397-0.162C21.901,73.053,21.846,72.922,21.846,72.769z"/>
	<path id="XMLID_5_" d="M35.867,67.068c-0.203,0-0.387,0.036-0.554,0.111c-0.166,0.074-0.307,0.172-0.424,0.295
		c-0.118,0.123-0.208,0.271-0.273,0.444c-0.065,0.172-0.097,0.354-0.097,0.545c0,0.104,0.018,0.236,0.056,0.396
		c0.037,0.16,0.113,0.314,0.23,0.462c0.117,0.147,0.28,0.281,0.499,0.383c0.427,0.197,1.099,0.161,1.664,0.39
		c0.306,0.124,0.613,0.301,0.866,0.547c0.252,0.246,0.463,0.541,0.632,0.887c0.17,0.344,0.255,0.729,0.255,1.154
		c0,0.295-0.061,0.614-0.181,0.955c-0.119,0.341-0.301,0.658-0.544,0.951c-0.243,0.293-0.553,0.536-0.928,0.73
		c-0.375,0.194-0.821,0.291-1.339,0.291c-0.351,0-0.689-0.064-1.016-0.194c-0.326-0.129-0.616-0.306-0.868-0.531
		c-0.252-0.225-0.457-0.486-0.614-0.785c-0.157-0.298-0.241-0.617-0.254-0.955h0.61c0.018,0.203,0.079,0.419,0.184,0.646
		c0.104,0.228,0.25,0.436,0.438,0.624c0.188,0.188,0.414,0.344,0.679,0.471c0.264,0.126,0.56,0.189,0.886,0.189
		c0.27,0,0.546-0.049,0.826-0.147c0.28-0.098,0.533-0.246,0.757-0.444c0.224-0.197,0.408-0.443,0.549-0.739
		c0.142-0.295,0.213-0.643,0.213-1.043c0-0.308-0.07-0.597-0.208-0.868c-0.139-0.271-0.308-0.508-0.508-0.712
		c-0.2-0.202-0.442-0.349-0.671-0.455c-0.475-0.219-0.884-0.141-1.392-0.307c-0.266-0.087-0.513-0.186-0.725-0.346
		c-0.213-0.16-0.385-0.367-0.517-0.619c-0.132-0.252-0.198-0.559-0.198-0.923c0-0.178,0.032-0.385,0.097-0.619
		c0.065-0.234,0.173-0.453,0.328-0.661c0.154-0.205,0.357-0.379,0.61-0.522c0.252-0.142,0.563-0.213,0.932-0.213
		c0.394,0,0.717,0.073,0.97,0.217c0.252,0.144,0.452,0.317,0.6,0.517c0.148,0.201,0.251,0.404,0.309,0.61
		c0.058,0.206,0.094,0.374,0.106,0.503h-0.609c-0.013-0.191-0.064-0.364-0.152-0.518c-0.089-0.153-0.201-0.285-0.333-0.393
		c-0.133-0.107-0.277-0.188-0.434-0.244C36.167,67.096,36.016,67.068,35.867,67.068z"/>
	<path id="XMLID_3_" d="M58.342,67.068c-0.203,0-0.387,0.036-0.554,0.111c-0.166,0.074-0.307,0.172-0.424,0.295
		c-0.118,0.123-0.208,0.271-0.273,0.444c-0.065,0.172-0.097,0.354-0.097,0.545c0,0.104,0.018,0.236,0.056,0.396
		c0.037,0.16,0.113,0.314,0.23,0.462c0.117,0.147,0.28,0.281,0.499,0.383c0.427,0.197,1.099,0.161,1.664,0.39
		c0.306,0.124,0.613,0.301,0.866,0.547c0.252,0.246,0.463,0.541,0.632,0.887c0.17,0.344,0.255,0.729,0.255,1.154
		c0,0.295-0.061,0.614-0.181,0.955c-0.119,0.341-0.301,0.658-0.544,0.951c-0.243,0.293-0.553,0.536-0.928,0.73
		c-0.375,0.194-0.821,0.291-1.339,0.291c-0.351,0-0.689-0.064-1.016-0.194c-0.326-0.129-0.616-0.306-0.868-0.531
		c-0.252-0.225-0.457-0.486-0.614-0.785c-0.157-0.298-0.241-0.617-0.254-0.955h0.61c0.018,0.203,0.079,0.419,0.184,0.646
		c0.104,0.228,0.25,0.436,0.438,0.624c0.188,0.188,0.414,0.344,0.679,0.471c0.264,0.126,0.56,0.189,0.886,0.189
		c0.27,0,0.546-0.049,0.826-0.147c0.28-0.098,0.533-0.246,0.757-0.444c0.224-0.197,0.408-0.443,0.549-0.739
		c0.142-0.295,0.213-0.643,0.213-1.043c0-0.308-0.07-0.597-0.208-0.868c-0.139-0.271-0.308-0.508-0.508-0.712
		c-0.2-0.202-0.442-0.349-0.671-0.455c-0.475-0.219-0.884-0.141-1.392-0.307c-0.266-0.087-0.513-0.186-0.725-0.346
		c-0.213-0.16-0.385-0.367-0.517-0.619c-0.132-0.252-0.198-0.559-0.198-0.923c0-0.178,0.032-0.385,0.097-0.619
		c0.065-0.234,0.173-0.453,0.328-0.661c0.154-0.205,0.357-0.379,0.61-0.522c0.252-0.142,0.563-0.213,0.932-0.213
		c0.394,0,0.717,0.073,0.97,0.217c0.252,0.144,0.452,0.317,0.6,0.517c0.148,0.201,0.251,0.404,0.309,0.61
		c0.058,0.206,0.094,0.374,0.106,0.503h-0.609c-0.013-0.191-0.064-0.364-0.152-0.518c-0.089-0.153-0.201-0.285-0.333-0.393
		c-0.133-0.107-0.277-0.188-0.434-0.244C58.642,67.096,58.49,67.068,58.342,67.068z"/>
</g>
</svg>
